<svg viewBox="488 0 130 126.74" xmlns="http://www.w3.org/2000/svg">
  <path fill="#141838" d="M592.34,43.96c-5.64,2.57-9.01,8.31-8.87,14.51.02.7.02,1.4,0,2.11.15,6.58-1.11,12.51-3.79,17.79-2.68,5.28-6.39,9.41-11.13,12.4-4.75,2.98-10.1,4.48-16.07,4.48s-11.56-1.49-16.3-4.48c-4.75-2.98-8.49-7.12-11.25-12.4-2.75-5.28-4.06-11.21-3.9-17.79-.15-6.73,1.15-12.7,3.9-17.91,2.75-5.2,6.5-9.33,11.25-12.4.86-.56,1.75-1.06,2.66-1.52,4.92-2.45,7.77-7.74,7.4-13.23h0c-.69-10.22-11.21-16.91-20.67-12.97-2.15.89-4.24,1.91-6.26,3.04-9.72,5.43-17.37,12.89-22.96,22.38-5.59,9.49-8.38,20.35-8.38,32.6s2.79,23.11,8.38,32.6c5.59,9.49,13.24,16.95,22.96,22.38,9.72,5.43,20.77,8.15,33.17,8.15s23.22-2.72,32.94-8.15c9.72-5.43,17.33-12.89,22.84-22.38,5.51-9.49,8.26-20.35,8.26-32.6,0-.46,0-.92-.01-1.38-.21-12.3-12.98-20.34-24.17-15.25h0Z"/>
  <circle fill="#f08817" cx="575.49" cy="21.19" r="20.12"/>
</svg>
